<svg id="Logo" xmlns="http://www.w3.org/2000/svg" viewBox="0 0 1571.53 413.29"><defs><style>.cls-1{fill:#a34f61;}.cls-2{fill:#631f31;}.cls-3{fill:#b57a88;}.cls-4{fill:#1b1714;}</style></defs><title>Logo_roter Hintergrund</title><path class="cls-1" d="M398.47,170.29l3.32,3c3.3,3,6,5.41,8.65,7.69,14.57,12.73,27.83,25.54,40.66,37.93,13.78,13.31,26.86,25.93,40,37-5.61-26.88-8.42-54.66-12.64-81.87-7.32-47.27-26.89-82.23-66.63-108.87-12.28-8.22-27.09-13.84-41.73-11.74C354,55.75,340.5,67,329.49,79.13c-4,4.42-7.82,9-11.45,13.72A90.39,90.39,0,0,1,398.47,170.29Z"/><path class="cls-1" d="M174.66,210.52c-26,16.46-52.9,33.48-83.39,31.28-13.34-1-26.87-4.48-41.29-10.72,2,18,3.84,36,6.66,53.74,4.39,27.72,24.92,64,51.46,73.14,20.61,7.08,43.32-2.67,60.76-15.73,33.67-25.21,55-60.61,73.06-98.91a90,90,0,0,1-23.21-57C203.76,192.12,189,201.47,174.66,210.52Z"/><path class="cls-2" d="M254.12,180.68c-10.84-1-22,.69-34.1,5.17l-1.31.51a90,90,0,0,0,23.21,57c9.22-19.52,17.61-39.8,26.37-59.87A74.39,74.39,0,0,0,254.12,180.68Z"/><path class="cls-1" d="M280.35,101.21a107,107,0,0,1,26.75,5.08l1,.36q4.74-7.07,9.9-13.8a90.65,90.65,0,0,0-47.73,8.23C273.72,101,277.08,101,280.35,101.21Z"/><path class="cls-2" d="M393.26,165.57l5.21,4.72A90.39,90.39,0,0,0,318,92.85q-5.18,6.72-9.9,13.8C340.22,117.38,367.18,141.87,393.26,165.57Z"/><path class="cls-1" d="M268.74,183.57l-.45-.12c-8.76,20.07-17.15,40.35-26.37,59.87A90.34,90.34,0,0,0,362,255.91c-10-8.1-19.59-17.31-28.85-26.24C312.57,209.76,293.09,191,268.74,183.57Z"/><path class="cls-3" d="M405.18,187c-2.64-2.3-5.41-4.77-8.74-7.76q-4.28-3.85-8.56-7.76c-25.74-23.39-52.35-47.57-83.25-57.59a98.48,98.48,0,0,0-24.73-4.7,116.77,116.77,0,0,0-17.56.37C207.1,114.75,145,157.32,91.58,198.27c-6.39,4.89-12.93,10.1-19.25,15.15-5,4-10,8-15.16,12a114.39,114.39,0,0,0,34.67,8.41c27.86,2,52.48-13.57,78.55-30.06,15.07-9.54,30.67-19.41,46.85-25.41A87.87,87.87,0,0,1,248,172.4c2.29,0,4.58.11,6.85.32a82.2,82.2,0,0,1,16.2,3.2c26.19,7.94,47.29,28.3,67.69,48,9.36,9,19,18.37,29.07,26.38,13.75,11,26.11,17.85,38.89,21.6,23.92,7,49.55,3.51,78.2-10.76-13-11-25.86-23.4-39.37-36.46C432.79,212.36,419.6,199.62,405.18,187Z"/><path class="cls-4" d="M542.71,170.49h5.74l0,82h36.86v4.9H542.71Z"/><path class="cls-4" d="M627.87,257.42,627,249h-.37a22,22,0,0,1-18.73,9.8c-11.76,0-17.27-8.33-17.27-16.17,0-13.59,12-21.8,35.88-21.55v-1.47c0-5.88-1.1-17.51-15.06-17.39a25,25,0,0,0-14.7,4.41l-1.84-4.29a31.83,31.83,0,0,1,17.15-5c17,0,20.21,12.74,20.21,23.27v22.9a105.83,105.83,0,0,0,.85,14ZM626.52,226c-12.86-.37-29.76,1.59-29.76,15.67,0,8.46,5.63,12.25,11.76,12.25,9.8,0,15.31-6,17.39-11.76a12.55,12.55,0,0,0,.61-3.55Z"/><path class="cls-4" d="M640.52,212.72c0-5.39-.24-9.43-.49-14.08h5.39l.49,10.65h.25c3.18-6.61,10.53-12,20.21-12,5.63,0,20.45,2.82,20.45,24.86v35.27h-5.76V222.64c0-10.65-4.16-20.33-16.29-20.33-8.32,0-15.31,5.88-17.63,13.47a17.57,17.57,0,0,0-.86,5.27v36.37h-5.76Z"/><path class="cls-4" d="M745.69,170.47v73.24c0,4.41.24,9.55.49,13.71h-5.27l-.37-11.14h-.24c-3.06,6.49-10,12.49-20.95,12.49-14.45,0-25.35-12.12-25.35-29.64-.12-19.59,12-31.84,26.46-31.84,10.16,0,16.53,5.27,19.22,10.29h.25V170.47Zm-5.76,51.44a27.4,27.4,0,0,0-.61-5.39,19,19,0,0,0-18.5-14.45c-12.85,0-20.94,11.14-20.94,26.45,0,13.23,6.61,25.35,20.58,25.35,8.45,0,16.28-5.51,18.86-15.31a21,21,0,0,0,.61-4.9Z"/><path class="cls-4" d="M761.12,227.42c0,18.86,10.29,26.21,22.41,26.21,8.57,0,13-1.72,16.29-3.31l1.47,4.65c-2.21,1.23-8.21,3.68-18.5,3.68-16.9,0-27.43-12.25-27.43-29.52,0-19.59,11.27-31.84,26.45-31.84,19.23,0,22.91,18.13,22.91,26.58a14.28,14.28,0,0,1-.25,3.55Zm37.47-4.66c.13-8.2-3.3-20.69-17.51-20.69-13,0-18.62,11.63-19.6,20.69Z"/><path class="cls-4" d="M814.1,249.71a26,26,0,0,0,13.23,4c9.31,0,13.72-5,13.72-11.15,0-6.49-3.92-9.92-12.37-13.35-9.68-3.67-14.94-8.94-14.94-16,0-8.45,6.61-15.92,18.12-15.92a23.38,23.38,0,0,1,13,3.67l-2.33,4.78a19.07,19.07,0,0,0-11.64-3.55c-7.47,0-11.39,4.78-11.39,10.16,0,6.13,4.17,8.82,12.13,12.13,9.55,3.67,15.18,8.45,15.18,17.39,0,10-7.83,16.78-19.84,16.78a28.54,28.54,0,0,1-14.94-4Z"/><path class="cls-4" d="M852.81,257.42c.24-4,.49-10.65.49-16.78V170.47h15.06V206h.24c3.68-5.75,10.17-9.55,19.11-9.55,14.57,0,25,12.13,24.86,30.25,0,21.44-13.59,32.09-27.06,32.09-7.72,0-14.58-2.94-18.86-10.29h-.25l-.73,8.94Zm15.55-24.61a16.31,16.31,0,0,0,.37,3.55,13.89,13.89,0,0,0,13.35,10.53c9.43,0,15.18-7.59,15.18-19.6,0-10.53-5-19.1-15.06-19.1-6.12,0-11.64,4.41-13.35,11a17.68,17.68,0,0,0-.49,3.92Z"/><path class="cls-4" d="M921.19,170.47h15.18v87H921.19Z"/><path class="cls-4" d="M980.46,257.42l-1-6.61h-.37c-3.67,4.65-9.92,8-17.63,8-12,0-18.74-8.69-18.74-17.76,0-15.06,13.35-22.66,35.39-22.53v-1c0-3.92-1.59-10.41-12.12-10.41a31.59,31.59,0,0,0-16,4.41L947,201.7c4.41-2.7,12.12-5.27,21.55-5.27,19.11,0,24.62,12.13,24.62,25.11v21.55a94.56,94.56,0,0,0,.86,14.33Zm-2-29.14c-10.65-.25-20.82,2.08-20.82,11.14,0,5.88,3.8,8.57,8.58,8.57a12.2,12.2,0,0,0,11.75-8.2,10.8,10.8,0,0,0,.49-3.31Z"/><path class="cls-4" d="M1003.63,243.58a33.51,33.51,0,0,0,15.31,4.29c6.61,0,9.55-2.69,9.55-6.61s-2.45-6.13-9.8-8.7c-11.63-4-16.53-10.41-16.41-17.39,0-10.53,8.7-18.74,22.54-18.74a35.14,35.14,0,0,1,15.8,3.55l-2.94,10.66a26.82,26.82,0,0,0-12.62-3.43c-5.39,0-8.33,2.57-8.33,6.25s2.82,5.63,10.41,8.32c10.78,3.92,15.8,9.43,15.93,18.25,0,10.78-8.45,18.62-24.25,18.62-7.23,0-13.72-1.72-18.13-4.17Z"/><path class="cls-4" d="M1109.36,227.05c0,21.92-15.43,31.72-30.61,31.72-16.91,0-29.89-11.64-29.89-30.74,0-19.6,12.86-31.6,30.87-31.6C1097.48,196.43,1109.36,208.93,1109.36,227.05Zm-44.94.61c0,11.52,5.63,20.21,14.82,20.21,8.57,0,14.57-8.45,14.57-20.45,0-9.31-4.16-20-14.45-20C1068.7,207.46,1064.42,217.74,1064.42,227.66Z"/><path class="cls-4" d="M1116.26,217c0-8.08-.12-13.84-.49-19.23h13.11l.49,11.39h.49c2.94-8.45,9.92-12.74,16.29-12.74a16.13,16.13,0,0,1,3.55.37V211a20.64,20.64,0,0,0-4.41-.49c-7.23,0-12.13,4.65-13.47,11.39a25.33,25.33,0,0,0-.49,4.65v30.86h-15.07Z"/><path class="cls-4" d="M1201.14,255.58c-3.19,1.48-9.43,3.07-16.9,3.07-18.62,0-30.74-11.88-30.74-30.37,0-17.89,12.24-31.85,33.19-31.85a37.61,37.61,0,0,1,14.57,2.82l-2.7,11.27a26.36,26.36,0,0,0-11.38-2.33c-11.52,0-18.38,8.45-18.25,19.35,0,12.25,8,19.23,18.25,19.23a29.3,29.3,0,0,0,11.87-2.33Z"/><path class="cls-4" d="M1209.1,170.47h15.18V206h.25a21.6,21.6,0,0,1,17.76-9.55c10.16,0,20.82,6.74,20.82,25.84v35.15H1248V224c0-8.7-3.18-15.19-11.51-15.19a12.28,12.28,0,0,0-11.63,8.45,12.7,12.7,0,0,0-.62,4.53v35.64H1209.1Z"/><path class="cls-4" d="M1285.15,231.83c.37,10.77,8.82,15.43,18.37,15.43a44.74,44.74,0,0,0,16.54-2.7l2.2,10.41a56,56,0,0,1-20.82,3.68c-19.35,0-30.74-11.88-30.74-30.13,0-16.53,10-32.09,29.15-32.09,19.35,0,25.72,15.92,25.72,29a37.6,37.6,0,0,1-.49,6.37Zm26.21-10.54c.12-5.51-2.33-14.57-12.37-14.57-9.31,0-13.22,8.45-13.84,14.57Z"/><path class="cls-4" d="M1334.31,243.58a33.47,33.47,0,0,0,15.3,4.29c6.62,0,9.56-2.69,9.56-6.61s-2.45-6.13-9.8-8.7c-11.64-4-16.53-10.41-16.41-17.39,0-10.53,8.69-18.74,22.53-18.74a35.11,35.11,0,0,1,15.8,3.55l-2.94,10.66a26.77,26.77,0,0,0-12.61-3.43c-5.39,0-8.33,2.57-8.33,6.25s2.82,5.63,10.41,8.32c10.78,3.92,15.8,9.43,15.92,18.25,0,10.78-8.45,18.62-24.25,18.62-7.22,0-13.71-1.72-18.12-4.17Z"/><path class="cls-4" d="M1402.05,180.76v17h14.33v11.27h-14.33v26.33c0,7.22,2,11,7.72,11a22.65,22.65,0,0,0,5.88-.73l.24,11.51a33.26,33.26,0,0,1-10.9,1.47c-5.51,0-10.16-1.84-13-4.9-3.18-3.43-4.65-8.82-4.65-16.66v-28h-8.58V197.78h8.58V184.31Z"/><path class="cls-4" d="M1436.81,231.83c.37,10.77,8.82,15.43,18.38,15.43a44.68,44.68,0,0,0,16.53-2.7l2.2,10.41a56,56,0,0,1-20.82,3.68c-19.35,0-30.74-11.88-30.74-30.13,0-16.53,10-32.09,29.15-32.09,19.35,0,25.72,15.92,25.72,29a37.6,37.6,0,0,1-.49,6.37ZM1463,221.29c.12-5.51-2.33-14.57-12.37-14.57-9.31,0-13.22,8.45-13.84,14.57Z"/><path class="cls-4" d="M1485.48,217c0-8.08-.13-13.84-.49-19.23h13.1l.49,11.39h.49c2.94-8.45,9.92-12.74,16.29-12.74a16.06,16.06,0,0,1,3.55.37V211a20.56,20.56,0,0,0-4.41-.49c-7.22,0-12.12,4.65-13.47,11.39a26.24,26.24,0,0,0-.49,4.65v30.86h-15.06Z"/><path class="cls-4" d="M865.59,289.45a8.13,8.13,0,0,0,4.73-7.18,7.71,7.71,0,0,0-2.11-5.65c-1.93-1.89-4.72-2.76-8.78-2.76a28.94,28.94,0,0,0-6.56.68l-.37.09v32.52l1.11.09c1.21.09,2.87.23,5,.23,5,0,8.41-1.05,10.47-3.2a9,9,0,0,0,2.52-6.5A8.66,8.66,0,0,0,865.59,289.45Zm-9.87,1.61h3.57c2.1,0,9,.48,9,6.76,0,5.89-5.68,6.77-9.06,6.77a26.87,26.87,0,0,1-3.47-.17Zm4.24-2.84h-4.24V277a20.16,20.16,0,0,1,3.61-.24c5.16,0,7.67,1.85,7.67,5.67C867,285.88,864.17,288.22,860,288.22Z"/><path class="cls-4" d="M898.11,274.1l-12,33.13h3.38l4-11.26h12l4.06,11.26h3.37L901,274.1Zm6.32,19h-9.91l3.73-10.2c.49-1.53.89-2.78,1.25-4,.34,1.25.72,2.55,1.26,4.14Z"/><path class="cls-4" d="M937.68,273.86a53.35,53.35,0,0,0-8.28.67l-.41.07v32.54l.43,0a70.45,70.45,0,0,0,7.17.29c6.16,0,11.22-1.8,14.24-5.07,2.83-3.11,4.33-7.45,4.33-12.55,0-4.81-1.36-8.56-4.15-11.45S943.58,273.86,937.68,273.86Zm-5.48,3.28a35.38,35.38,0,0,1,5.34-.4c4.83,0,8.52,1.24,11,3.69,2.25,2.26,3.38,5.48,3.35,9.57,0,9.4-5.3,14.59-14.92,14.59a45.39,45.39,0,0,1-4.72-.18Z"/><polygon class="cls-4" points="974.23 291.25 987.12 291.25 987.12 288.36 974.23 288.36 974.23 276.98 987.88 276.98 987.88 274.1 971.01 274.1 971.01 307.23 988.64 307.23 988.64 304.35 974.23 304.35 974.23 291.25"/><path class="cls-4" d="M1025.81,290.57c0,4.51,0,7.71.24,11.07-1.35-2.46-2.95-5-5.07-8.34l-12.7-19.2h-2.9v33.13h3.18V290.47c0-4.35,0-7.56-.19-10.86,1.44,2.61,3.18,5.31,5,8.13L1026,307l.15.22h2.9V274.1h-3.22Z"/><rect class="cls-4" x="1045.79" y="293.35" width="21.97" height="2.79"/><path class="cls-4" d="M1110,292.53c-1,3.49-1.83,6.33-2.47,9.05-.47-2.34-1.14-4.95-1.8-7.5l-5.29-20h-2.94l-5.39,18.48-.14.46c-.93,3.12-1.81,6.11-2.39,8.66-.56-2.48-1.32-5.54-2.26-9.11l-4.77-18.49h-3.3l8.7,33.13h2.94l5.54-18.9c1.16-3.73,1.91-6.38,2.42-8.66.5,2.51,1.19,5.29,2.08,8.68l5,18.88h2.94l9.93-33.13h-3.36Z"/><path class="cls-4" d="M1155.12,274.09v19.7c0,7-3,10.82-8.48,10.82-5.23,0-8.1-3.84-8.1-10.82v-19.7h-3.21v19.84c0,8.65,4.07,13.61,11.17,13.61,3.58,0,11.9-1.36,11.9-14V274.09Z"/><path class="cls-4" d="M1142.72,278.37a1.74,1.74,0,0,0,1.77-1.91,1.79,1.79,0,0,0-1.77-1.86,1.81,1.81,0,0,0-1.76,1.86A1.77,1.77,0,0,0,1142.72,278.37Z"/><path class="cls-4" d="M1150.93,278.37a1.74,1.74,0,0,0,1.77-1.91,1.79,1.79,0,0,0-1.77-1.86,1.81,1.81,0,0,0-1.76,1.86A1.76,1.76,0,0,0,1150.93,278.37Z"/><path class="cls-4" d="M1192.82,298c-.73-3.4-2.16-5.67-4.26-6.76a8.82,8.82,0,0,0,5.6-8.46,8.54,8.54,0,0,0-2.39-6.08c-2-1.94-4.83-2.8-9-2.8a35.75,35.75,0,0,0-7,.68l-.38.08v32.61h3.22V292.49h4.5c3.92.17,5.82,2,6.75,6.53a46.07,46.07,0,0,0,2.09,7.94l.14.27h3.49l-.37-.71C1194.48,305.21,1193.81,302.5,1192.82,298Zm-1.92-14.84c0,4-3,6.53-7.72,6.53h-4.62V277a22.52,22.52,0,0,1,4.14-.34C1186.44,276.69,1190.9,277.81,1190.9,283.12Z"/><polygon class="cls-4" points="1206.97 276.98 1217.42 276.98 1217.42 307.23 1220.68 307.23 1220.68 276.98 1231.18 276.98 1231.18 274.1 1206.97 274.1 1206.97 276.98"/><polygon class="cls-4" points="1245.7 276.98 1256.15 276.98 1256.15 307.23 1259.42 307.23 1259.42 276.98 1269.92 276.98 1269.92 274.1 1245.7 274.1 1245.7 276.98"/><polygon class="cls-4" points="1288.76 291.25 1301.64 291.25 1301.64 288.36 1288.76 288.36 1288.76 276.98 1302.4 276.98 1302.4 274.1 1285.54 274.1 1285.54 307.23 1303.17 307.23 1303.17 304.35 1288.76 304.35 1288.76 291.25"/><path class="cls-4" d="M1346.57,274.1,1339.29,293c-1.4,3.71-2.42,6.5-3.22,9-.87-2.82-1.94-5.81-3.12-9.1l-7-18.82h-3.41l-2.41,33.13h3.22l1-15.24c.29-4,.51-8.38.61-12,.86,2.77,2,5.87,3.41,9.85l6.46,17.4h2.25l6.9-17.83c1.43-3.76,2.55-6.83,3.52-9.65.08,3.36.36,7.74.64,11.76l1,15.72h3.22l-2.26-33.13Z"/><path class="cls-4" d="M1382.4,289.45a8.14,8.14,0,0,0,4.72-7.18,7.71,7.71,0,0,0-2.1-5.65c-1.94-1.89-4.73-2.76-8.79-2.76a28.91,28.91,0,0,0-6.55.68l-.38.09v32.52l1.11.08c1.21.1,2.87.24,5,.24,5,0,8.41-1.05,10.47-3.2a9,9,0,0,0,2.52-6.5A8.65,8.65,0,0,0,1382.4,289.45Zm-9.88-1.23V277a20.29,20.29,0,0,1,3.62-.24c5.16,0,7.67,1.85,7.67,5.67,0,3.47-2.83,5.81-7,5.81Zm12.53,9.6c0,5.89-5.67,6.77-9.06,6.77a26.87,26.87,0,0,1-3.47-.17V291.06h3.57C1378.19,291.06,1385.05,291.54,1385.05,297.82Z"/><polygon class="cls-4" points="1407.77 291.25 1420.65 291.25 1420.65 288.36 1407.77 288.36 1407.77 276.98 1421.42 276.98 1421.42 274.1 1404.55 274.1 1404.55 307.23 1422.18 307.23 1422.18 304.35 1407.77 304.35 1407.77 291.25"/><path class="cls-4" d="M1456.14,298c-.73-3.4-2.16-5.66-4.26-6.76a8.82,8.82,0,0,0,5.6-8.46,8.54,8.54,0,0,0-2.39-6.08c-2-1.94-4.83-2.8-9-2.8a35.67,35.67,0,0,0-7,.68l-.38.08v32.61h3.22V292.49h4.5c3.92.17,5.82,2,6.75,6.53a46.37,46.37,0,0,0,2.09,7.94l.14.27h3.49l-.37-.71C1457.87,305.35,1457.28,303.19,1456.14,298Zm-1.92-14.84c0,4-3,6.53-7.72,6.53h-4.62V277a22.52,22.52,0,0,1,4.14-.34C1449.76,276.69,1454.22,277.81,1454.22,283.12Z"/><path class="cls-4" d="M1488.82,290.32v2.83h7.49v10.57a15.86,15.86,0,0,1-6.24.91c-8.36,0-13.35-5.22-13.35-14s5.3-14,13.83-14a15,15,0,0,1,6.66,1.34l.48.23,1.06-2.83-.41-.19a19.07,19.07,0,0,0-7.7-1.48c-11.9,0-17.23,8.54-17.23,17,0,5.06,1.65,9.59,4.54,12.42s6.88,4.38,11.74,4.38a25.58,25.58,0,0,0,9.54-1.8l.3-.12V290.32Z"/></svg>